<svg xmlns="http://www.w3.org/2000/svg" width="56.673" height="88.263" viewBox="0 0 56.673 88.263">
  <path id="PF-Logo-03" d="M332.14,448.346a11.972,11.972,0,0,0-3.725-8.723,9.966,9.966,0,0,1-2.9-8.978,12.783,12.783,0,0,0-.093-4.706,11.475,11.475,0,0,0-2.023-4.52,12.071,12.071,0,0,0-8.126-4.856,9.949,9.949,0,0,1-7.614-5.54,12.07,12.07,0,0,0-16.122-5.609c-.158.077-.316.156-.469.241a10.87,10.87,0,0,0,1.938,19.963,23.674,23.674,0,0,1,0,45.439,10.789,10.789,0,0,0-7.667,10.378h0a10.865,10.865,0,0,0,5.75,9.6,12.069,12.069,0,0,0,16.337-4.937c.077-.148.154-.3.227-.445a9.95,9.95,0,0,1,7.634-5.54A12.075,12.075,0,0,0,325.593,466.5c-.022-.164-.049-.326-.077-.488a9.964,9.964,0,0,1,2.928-8.962A11.978,11.978,0,0,0,332.14,448.346Zm-30.9,0a12.885,12.885,0,1,0-12.885,12.887,12.885,12.885,0,0,0,12.885-12.887Z" transform="translate(-275.467 -404.206)" fill="#fff"/>
</svg>
